<svg width="70" height="70" viewBox="0 0 70 70" fill="none" xmlns="http://www.w3.org/2000/svg">
<path d="M69.3975 35.3676C69.0122 34.9829 68.4852 34.7685 67.9453 34.7685L18.2059 34.8768L24.1658 32.7031C24.1663 32.703 24.1669 32.7027 24.1674 32.7026L68.6517 16.4783C69.7112 16.0919 70.2598 14.9218 69.8792 13.8596L65.4011 1.35901C65.2171 0.84508 64.8358 0.4259 64.3419 0.194025C63.8481 -0.037576 63.2824 -0.0630057 62.7695 0.124026L30.6724 11.8306C30.672 11.8307 30.6715 11.8308 30.6711 11.831L1.34826 22.5257C0.288822 22.912 -0.25983 24.0822 0.120795 25.1442L4.4787 37.3093V67.9492C4.4787 68.4938 4.69527 69.0162 5.08068 69.4009C5.46499 69.7847 5.98562 70 6.52839 70H6.53276L67.9539 69.8663C69.0842 69.8638 69.9992 68.9463 69.9992 67.8155V36.8193C69.9995 36.2746 69.7829 35.7524 69.3975 35.3676ZM27.4312 17.3783L21.9639 29.1407L16.7316 31.0491L22.1989 19.2868L27.4312 17.3783ZM43.5152 11.5121L38.0478 23.2745L27.4082 27.155L32.8755 15.3926L43.5152 11.5121ZM54.1915 7.61826L48.7241 19.3806L43.4919 21.2889L48.9594 9.52658L54.1915 7.61826ZM65.3323 13.3231L54.1683 17.3949L59.6357 5.63256L62.2373 4.68373L65.3323 13.3231ZM16.7547 21.2722L11.2873 33.0345L7.76282 34.32L4.66778 25.6806L16.7547 21.2722ZM65.9 65.7692L8.57821 65.8941V38.9993L65.9 38.8745V65.7692Z" fill="#FFBB33"/>
<path d="M16.0941 60.4091H16.0985L58.3887 60.3171C59.519 60.3147 60.4341 59.3973 60.4341 58.2663V46.4106C60.4341 45.866 60.2175 45.3437 59.8321 44.959C59.4478 44.5752 58.9271 44.3599 58.3844 44.3599C58.3829 44.3599 58.3814 44.3599 58.38 44.3599L16.0897 44.4519C14.9595 44.4543 14.0444 45.3719 14.0444 46.5027V58.3584C14.0444 58.903 14.261 59.4253 14.6464 59.81C15.0307 60.1938 15.5512 60.4091 16.0941 60.4091ZM18.1438 48.5355L56.3347 48.5346V56.3284H18.1438V48.5355Z" fill="#FFBB33"/>
</svg>
